<svg xmlns="http://www.w3.org/2000/svg" viewBox="0 0 200 200">
  <defs>
    <linearGradient id="sunsetBg" x1="0%" y1="0%" x2="100%" y2="100%">
      <stop offset="0%" stop-color="#E74C3C"/>
      <stop offset="50%" stop-color="#FF6B42"/>
      <stop offset="100%" stop-color="#FF6B8A"/>
    </linearGradient>
    <linearGradient id="glowGrad" x1="0%" y1="0%" x2="100%" y2="100%">
      <stop offset="0%" stop-color="#FFD700"/>
      <stop offset="100%" stop-color="#FF8C42"/>
    </linearGradient>
    <filter id="glow">
      <feGaussianBlur stdDeviation="2" result="blur"/>
      <feMerge>
        <feMergeNode in="blur"/>
        <feMergeNode in="SourceGraphic"/>
      </feMerge>
    </filter>
  </defs>
  <rect width="200" height="200" rx="36" fill="url(#sunsetBg)"/>
  <g transform="translate(100,100)" filter="url(#glow)">
    <path d="M-40,-20 C-40,-28 -34,-34 -26,-34 L26,-34 C34,-34 40,-28 40,-20 L40,0 C40,2 38,4 36,4 L24,4 L24,10 C24,14 28,16 32,16 C36,16 38,18 38,22 L38,24 C38,28 34,32 28,32 L12,32 C10,32 8,30 8,28 L8,22 C8,20 10,18 12,18 L12,10 L-12,10 L-12,18 C-12,18 -10,18 -8,20 C-6,22 -6,24 -6,26 L-6,28 C-6,30 -8,32 -10,32 L-28,32 C-34,32 -38,28 -38,24 L-38,22 C-38,18 -36,16 -32,16 C-28,16 -24,14 -24,10 L-24,4 L-36,4 C-38,4 -40,2 -40,0 Z" fill="white" opacity="0.95"/>
    <circle cx="-16" cy="-16" r="5" fill="url(#sunsetBg)"/>
    <circle cx="16" cy="-16" r="5" fill="url(#sunsetBg)"/>
    <circle cx="16" cy="2" r="4" fill="url(#sunsetBg)"/>
    <circle cx="-16" cy="2" r="4" fill="url(#sunsetBg)"/>
    <path d="M-6,-34 L0,-40 L6,-34" stroke="url(#glowGrad)" stroke-width="3" fill="none" stroke-linecap="round"/>
    <path d="M-3,-36 L3,-36" stroke="url(#glowGrad)" stroke-width="2" fill="none" stroke-linecap="round"/>
  </g>
</svg>